<svg xmlns="http://www.w3.org/2000/svg" width="60" height="60" viewBox="0 0 60 60">
    <g fill="none" fill-rule="evenodd">
        <circle cx="30" cy="30" r="30" fill="#FDECD3"/>
        <path fill="#FF9800" fill-rule="nonzero" stroke="#FF9800" stroke-width=".3" d="M39.82 27.12l-4.75-4.65a1.48 1.48 0 0 0 .74-1.28v-.4a1.45 1.45 0 0 0-.66-1.23c.3-.29.65-.66 1-1.07l.38-.49c1.3-1.83 1-3 .46-3.6a.91.91 0 0 0-.75-.4c-.48 0-.79.43-1.1.84-.31.41-.58.78-.88.78-.3 0-.5-.17-.79-.52a1.94 1.94 0 0 0-1.56-.89 1.92 1.92 0 0 0-1.55.89c-.29.35-.45.52-.79.52s-.49-.17-.78-.52a1.93 1.93 0 0 0-1.55-.89 1.94 1.94 0 0 0-1.56.89c-.29.35-.45.52-.78.52s-.55-.28-.9-.7c-.35-.42-.91-1.19-1.73-.62a1.46 1.46 0 0 0-.63 1.13c-.08 1.3 1.44 3.05 2.4 4a1.51 1.51 0 0 0-.82 1.33v.4a1.5 1.5 0 0 0 .78 1.33l-4.74 4.63A7.53 7.53 0 0 0 17 32.49v5.91a6.19 6.19 0 0 0 6.19 6.18h12.7a6.19 6.19 0 0 0 6.19-6.18v-5.91a7.57 7.57 0 0 0-2.26-5.37zm-15.11-5.44a.49.49 0 0 1-.49-.49v-.4a.48.48 0 0 1 .49-.49h9.6a.49.49 0 0 1 .5.49v.4a.49.49 0 0 1-.5.49h-9.6zm-1.88-6.58c.156.128.294.276.41.44a2.18 2.18 0 0 0 1.66 1.08 1.92 1.92 0 0 0 1.55-.89c.29-.35.45-.52.79-.52s.49.17.78.53a2 2 0 0 0 1.55.88 2 2 0 0 0 1.56-.88c.29-.36.45-.53.78-.53s.5.17.79.53a2 2 0 0 0 1.56.88c.81 0 1.31-.68 1.68-1.18.09-.12.21-.28.3-.38.39.53.21 1.32-.53 2.35-.11.15-.22.3-.34.44A12.42 12.42 0 0 1 34 19.3h-8.69c-1.12-1-2.73-2.87-2.67-3.81a.56.56 0 0 1 .19-.39zm18.25 23.3a5.19 5.19 0 0 1-5.19 5.18h-12.7A5.19 5.19 0 0 1 18 38.4v-5.91a6.55 6.55 0 0 1 2-4.66l5.23-5.15h8.62l5.27 5.15a6.59 6.59 0 0 1 2 4.66l-.04 5.91z"/>
        <path fill="#FF9800" fill-rule="nonzero" d="M29.54 26.54a7.37 7.37 0 1 0 0 14.74 7.37 7.37 0 0 0 0-14.74zm0 13.74a6.37 6.37 0 1 1 6.37-6.37 6.38 6.38 0 0 1-6.37 6.37z"/>
        <path fill="#FF9800" fill-rule="nonzero" d="M31.86 30.83a.5.5 0 1 0 0-1h-4.65a.5.5 0 0 0-.5.5.51.51 0 0 0 .5.5H29a1.24 1.24 0 0 1 1.15 1h-2.94a.5.5 0 0 0-.5.5.51.51 0 0 0 .5.5h2.89a1.26 1.26 0 0 1-1.15.95h-1.74a.43.43 0 0 0-.19 0 .36.36 0 0 0-.16.11.57.57 0 0 0-.08.13.7.7 0 0 0 0 .14v.05a.58.58 0 0 0 0 .19.64.64 0 0 0 .11.16l4.09 4a.47.47 0 0 0 .35.15.49.49 0 0 0 .35-.15.5.5 0 0 0 0-.71l-3.22-3.16H29a2.3 2.3 0 0 0 2.18-1.95h.73a.5.5 0 1 0 0-1h-.73a2.42 2.42 0 0 0-.39-1l1.07.09z"/>
    </g>
</svg>
