<svg xmlns="http://www.w3.org/2000/svg" width="50" height="50" viewBox="0 0 50 50">
    <g fill="none" fill-rule="evenodd">
        <circle cx="25" cy="25" r="25" fill="#2B7ED1"/>
        <path fill="#FFF" fill-rule="nonzero" stroke="#FFF" stroke-width=".3" d="M13 34.318l.091 3.298a.399.399 0 0 0 .402.384h23.014c.218 0 .396-.17.402-.384l.09-3.288c.002-.035.132-3.487-4.019-4.503a30.844 30.844 0 0 0-5.777-.615c2.115-1.22 3.594-3.96 3.594-7.145 0-.119-.007-.236-.013-.353.306-.382 1.093-1.713.683-4.969-.136-.76-.73-2.094-2.031-2.177a2.302 2.302 0 0 0-.649-1.135c-.046-.04-4.612-3.932-9.922 1.291a.39.39 0 0 0 .118.639l.265.118c-.647.558-1.479 1.731-1.122 3.954l.418 2.263c.02.102.08.19.167.249l-.003.12c0 3.197 1.491 5.948 3.619 7.16a29.14 29.14 0 0 0-5.307.6C12.87 30.841 13 34.293 13 34.318zm11.852-4.212l1.253.807-.46 1.258h-1.586l-.46-1.258 1.253-.807zm-.706 2.855h1.416l.356 4.249H23.79l.356-4.249zm12.05 1.336l-.08 2.913h-9.392l-.385-4.604.63-1.719a.391.391 0 0 0-.158-.464l-.688-.443c1.626.019 4.67.123 6.663.611 3.494.856 3.416 3.583 3.41 3.706zM30.673 16.86c.314 2.495-.14 3.708-.395 4.17-1.277-.789-1.5-2.578-1.506-3.704l.038-.046c.08-.121.154-.247.22-.377.254-.476.411-.997.463-1.533.916.166 1.172 1.448 1.18 1.49zm-10.452-1.082c.148-.059.247-.2.25-.357a.394.394 0 0 0-.236-.368l-.38-.17c4.569-4.094 8.239-1 8.38-.878.274.263.438.616.46.991.012.54-.12 1.074-.38 1.549-.084.161-.152.266-.15.266l-.05.055-.045.048c-2.377 2.63-7.39.822-7.441.804a.408.408 0 0 0-.355.035.394.394 0 0 0-.186.299c-.174 1.88-.577 2.65-.853 2.964l-.317-1.715c-.442-2.755 1.234-3.494 1.303-3.523zm-.71 6.287c0-.081.005-.162.007-.243.507-.339 1.063-1.187 1.316-3.205 1.29.385 4.81 1.187 7.165-.578.11 1.293.554 2.926 1.984 3.73.005.098.01.196.01.296 0 3.879-2.35 7.034-5.24 7.034s-5.242-3.155-5.242-7.034zm4.063 7.92l-.681.438a.391.391 0 0 0-.158.464l.633 1.729-.384 4.594h-9.1l-.08-2.922c-.002-.029-.106-2.836 3.41-3.697 1.875-.459 4.68-.579 6.36-.607z"/>
    </g>
</svg>
