<svg xmlns="http://www.w3.org/2000/svg" width="60" height="60" viewBox="0 0 60 60">
    <g fill="none" fill-rule="evenodd">
        <circle cx="30" cy="30" r="30" fill="#FFE3E2"/>
        <path fill="#FF3E37" fill-rule="nonzero" d="M43.862 27.815a5.36 5.36 0 0 0 2.383-4.462c0-2.951-2.382-5.353-5.311-5.353-2.93 0-5.312 2.402-5.312 5.353a5.36 5.36 0 0 0 2.383 4.462 9.968 9.968 0 0 0-2.242 1.006c.03-.227.05-.457.05-.692 0-2.952-2.383-5.354-5.313-5.354-2.929 0-5.312 2.402-5.312 5.354 0 .247.023.489.055.727a9.959 9.959 0 0 0-2.248-1.008 5.36 5.36 0 0 0 2.383-4.462c0-2.952-2.382-5.353-5.311-5.353-2.93 0-5.312 2.401-5.312 5.353a5.36 5.36 0 0 0 2.384 4.462A10.152 10.152 0 0 0 10 37.553v.704h11.268a10.156 10.156 0 0 0-.834 4.039V43h20.133v-.704c0-1.448-.304-2.824-.849-4.071H51v-.705c0-4.567-3.012-8.438-7.138-9.705zM21.859 41.59a8.716 8.716 0 0 1 1.372-4.038 8.7 8.7 0 0 1 .507-.705 8.688 8.688 0 0 1 4.216-2.9 8.635 8.635 0 0 1 1.4-.303c.376-.05.756-.086 1.146-.086.384 0 .76.035 1.133.084a8.415 8.415 0 0 1 1.401.3 8.692 8.692 0 0 1 4.202 2.872 8.753 8.753 0 0 1 1.905 4.776H21.86zm-1.793-22.15c2.159 0 3.914 1.77 3.914 3.945s-1.756 3.943-3.914 3.943c-2.158 0-3.914-1.769-3.914-3.943 0-2.175 1.756-3.945 3.914-3.945zm7.191 13.254a10.126 10.126 0 0 0-5.243 4.154H11.426c.357-4.49 4.096-8.032 8.64-8.032 2.996 0 5.633 1.544 7.191 3.878zm3.243-8.511c2.159 0 3.914 1.77 3.914 3.945s-1.756 3.944-3.914 3.944c-2.158 0-3.914-1.77-3.914-3.944 0-2.175 1.755-3.945 3.914-3.945zm3.225 8.504c1.555-2.349 4.202-3.904 7.209-3.904 4.545 0 8.283 3.543 8.64 8.032h-10.61a10.125 10.125 0 0 0-5.239-4.128zm7.209-13.28c2.158 0 3.914 1.77 3.914 3.945s-1.756 3.944-3.914 3.944c-2.159 0-3.914-1.77-3.914-3.944 0-2.175 1.755-3.944 3.914-3.944z"/>
    </g>
</svg>
