<svg xmlns="http://www.w3.org/2000/svg" width="26" height="26" viewBox="0 0 26 26">
    <g fill="none" fill-rule="evenodd">
        <circle cx="13" cy="13" r="13" fill="#2154A6"/>
        <path fill="#FFF" fill-rule="nonzero" d="M18.785 7.815L15.99 5.631a.41.41 0 0 0-.56.07l-7.656 9.804a.398.398 0 0 0-.045.072l-.008.021a.398.398 0 0 0-.02.059l-.9 4.038a.399.399 0 0 0 .565.442l3.693-1.848a.398.398 0 0 0 .052-.034l.018-.003a.398.398 0 0 0 .058-.06l7.666-9.817a.399.399 0 0 0-.07-.56zm-7.972 9.561l-2.165-1.693 5.505-7.05 2.166 1.693-5.506 7.05zm-2.471-.917l1.793 1.402-2.374 1.19.58-2.592zm8.467-6.761l-2.165-1.693 1.172-1.495 2.16 1.688-1.167 1.5z"/>
    </g>
</svg>
