<svg xmlns="http://www.w3.org/2000/svg" width="60" height="60" viewBox="0 0 60 60">
    <g fill="none" fill-rule="evenodd">
        <circle cx="30" cy="30" r="30" fill="#E1DBFD"/>
        <g fill="#5236D5" fill-rule="nonzero">
            <path d="M19.042 39.47H10V22.742h9.042V39.47zm-7.82-1.195h6.597V23.937h-6.597v14.338z"/>
            <path d="M15.375 35.268h1.222v1.195h-1.222zM32.828 40.748c-.577 0-1.146-.1-1.694-.3l-10.16-3.985H18.43v-1.196h2.779l10.366 4.065a3.684 3.684 0 0 0 1.637.201A3.67 3.67 0 0 0 34.783 39l12.782-8.194a1.091 1.091 0 0 0 .23-1.556l-.021-.027a1.15 1.15 0 0 0-1.501-.272l-6.81 4.146-.646-1.015 6.81-4.146a2.394 2.394 0 0 1 3.121.566l.022.027a2.273 2.273 0 0 1-.499 3.253l-.023.016-12.803 8.206a4.906 4.906 0 0 1-2.617.744z"/>
            <path d="M27.98 34.675h-1.222c0-1.248 1.038-2.263 2.314-2.263h8.938a1.08 1.08 0 0 0 1.091-1.068c0-.589-.49-1.068-1.09-1.068h-9.118l-3.269-2.046a8.486 8.486 0 0 0-4.488-1.284H18.43V25.75h2.706a9.733 9.733 0 0 1 5.147 1.473l2.967 1.858h8.76c1.275 0 2.313 1.015 2.313 2.263s-1.038 2.263-2.313 2.263h-8.938c-.602 0-1.092.48-1.092 1.068z"/>
            <g>
                <path d="M31.704 26.337c-1.979 0-3.588-1.575-3.588-3.51 0-1.936 1.61-3.51 3.588-3.51 1.979 0 3.589 1.574 3.589 3.51 0 1.935-1.61 3.51-3.59 3.51zm0-5.824c-1.305 0-2.366 1.038-2.366 2.313 0 1.277 1.061 2.315 2.366 2.315 1.304 0 2.367-1.038 2.367-2.315 0-1.275-1.062-2.313-2.367-2.313zM38.861 19.479c-1.51 0-2.738-1.201-2.738-2.678 0-1.476 1.228-2.676 2.738-2.676s2.738 1.2 2.738 2.676c0 1.477-1.228 2.678-2.738 2.678zm0-4.159c-.836 0-1.515.665-1.515 1.48 0 .818.68 1.483 1.515 1.483.836 0 1.516-.665 1.516-1.482 0-.816-.68-1.481-1.516-1.481z"/>
            </g>
        </g>
    </g>
</svg>
