<svg xmlns="http://www.w3.org/2000/svg" width="30" height="16" viewBox="0 0 30 16">
    <path fill="#2B7ED1" fill-rule="nonzero" d="M26.613 8c0 2.6-2.166 4.706-4.839 4.706-2.672 0-4.839-2.107-4.839-4.706 0-2.6 2.167-4.706 4.84-4.706 2.672 0 4.838 2.107 4.838 4.706zM30 8c0 4.411-3.69 8-8.226 8H8.226C3.69 16 0 12.411 0 8s3.69-8 8.226-8h13.548C26.31 0 30 3.589 30 8zm-.968 0c0-3.892-3.256-7.059-7.258-7.059-4.002 0-7.258 3.167-7.258 7.059 0 3.892 3.256 7.059 7.258 7.059 4.002 0 7.258-3.167 7.258-7.059z"/>
</svg>
