<svg xmlns="http://www.w3.org/2000/svg" width="18" height="24" viewBox="0 0 18 24">
    <path fill="#303030" fill-rule="nonzero" d="M16.783 3.025L12.265.09a.623.623 0 0 0-.837.178L1.138 16.12a.605.605 0 0 0-.059.115l-.008.033a.605.605 0 0 0-.024.091l-.828 6.231a.605.605 0 0 0 .915.595L6.478 19.9a.605.605 0 0 0 .074-.06l.027-.005a.605.605 0 0 0 .08-.1L16.961 3.862a.605.605 0 0 0-.178-.838zM5.984 18.55l-3.502-2.275 7.399-11.4 3.502 2.276-7.399 11.4zm-3.862-1.06l2.899 1.884-3.434 2.116.535-4zm11.92-11.355L10.54 3.86l1.577-2.417 3.49 2.268-1.565 2.424z"/>
</svg>
